<?xml version="1.0" encoding="utf-8"?>
<!-- Generator: Adobe Illustrator 16.0.0, SVG Export Plug-In . SVG Version: 6.00 Build 0)  -->
<!DOCTYPE svg PUBLIC "-//W3C//DTD SVG 1.1//EN" "http://www.w3.org/Graphics/SVG/1.1/DTD/svg11.dtd">
<svg version="1.1" id="Слой_1" xmlns="http://www.w3.org/2000/svg" xmlns:xlink="http://www.w3.org/1999/xlink" x="0px" y="0px"
	 width="90px" height="50px" viewBox="0 0 90 50" enable-background="new 0 0 90 50" xml:space="preserve">
<g>
	<g>
		<path fill="#F16161" d="M36.3242188,32.109375c2.1787109,1.9414063-0.3291016,3.3798828,0.15625,4.7333984
			c0.5878906,1.2138672,1.7578125,1.3681641,2.6904297,0.9326172c0.9384766-0.4121094,1.6025391-1.4335938,1.0439453-2.625
			C39.46875,33.2734375,36.2958984,32.0800781,36.3242188,32.109375z M14.6914063,23.5556641l-2.0458984-6.5463867
			l-2.2578125,6.5463867H14.6914063z M2,17v15c4.5849609,0.078125,4.5625-2.296875,6.125-6.3730469L11,17H2z M26.6328125,22.387207
			c-2.6484375,0.1254883-2.4882813,9.2749023,0.6367188,8.7641602c1.9375-0.3212891,2.0888672-2.9824219,1.7958984-4.84375
			C28.7675781,24.3730469,28.4160156,22.2993164,26.6328125,22.387207z M16.4648438,28.96875
			c-0.3183594-1.2734375-0.8173828-2.5341797-1.2392578-3.7792969H9.9257813
			c-0.4404297,1.4580078-0.9003906,3.1210938-1.1220703,4.5976563C8.3427734,32.3105469,17.4072266,33.0380859,16.4648438,28.96875z
			 M81,31.9931641h8c-1.0117188-0.3447266-1.7382813-0.9052734-2.484375-2.4101563
			c-0.7460938-1.5058594-5.3515625-13.5029297-5.3515625-13.5029297c-0.7392578,0.8071289-1.5849609,1.3710938-2.5458984,1.6933594
			c0.2294922,0.3227539,0.2861328,0.6875,0.0556641,1.0356445l-3.3212891,7.6000977l-1.4560547,3.3310547
			c-0.4238281,0.9765625-0.9541016,1.8417969-1.8974609,2.2519531h6.9941406
			c-1.0029297-0.3935547-3.0537109-0.1611328-3.0166016-2.2363281c0.0107422-0.5654297,0.2246094-1.421875,0.6269531-2.5820313
			l0.4042969-1.1191406h4.8730469l0.5400391,1.3847656c0.2939453,0.71875,0.4960938,1.2675781,0.6064453,1.6630859
			c0.1347656,0.3925781,0.1777344,0.7011719,0.1777344,0.9648438C83.2050781,31.609375,81.9648438,31.8193359,81,31.9931641z
			 M77.4355469,24.7402344l1.9208984-5.0874023l2.0322266,5.0874023H77.4355469z M36.4472656,32.109375
			c-1.2607422-0.5058594-5.9414063-0.6445313-7.5820313-0.3662109c-5.4257813,0.7900391-6.7587891-0.7568359-7.2148438-4.4931641
			c-0.2246094-2.5571289,1.1972656-5.4272461,4.7431641-5.5673828c0.8662109-0.034668,1.9658203,0.015625,2.5693359,0.7416992
			l0.0029297-3.4633789c-0.1337891-1.6240234-0.7119141-1.7197266-2.2021484-1.9350586L29,17V5H15
			c0.0439453,3.9746094,0,7,0.3837891,10.8222656c0.3701172,3.6860352,2.40625,6.7392578,3.609375,10.2412109
			c0.8818359,2.4677734,2.0244141,5.1044922,4.9404297,5.9013672L15,32v13h14v-6
			c-5.4355469,0.7529297-11.4287109-0.1484375-11.8828125-2.2382813
			C17.0068359,33.3574219,32.6445313,31.3222656,36.4472656,32.109375z M54.6972656,18.425293
			C55.3935547,17.3613281,55.7109375,17.1865234,57,17h-8c1.2109375,0.3061523,1.4091797,0.4575195,1.765625,1.4492188
			c0.1767578,0.4912109,0.46875,1.5585938,0.46875,3.4379883v5.1733398
			c-0.0185547,1.9316406-0.1689453,3.0898438-0.4951172,3.4667969C49.8476563,31.5703125,49.0029297,31.7070313,48,32h9
			c-1.2138672-0.4941406-1.5439453-0.3964844-2.3457031-1.4902344C54.3408203,30.0917969,54.1875,28.9511719,54.1875,27.0605469
			V21.887207C54.1875,19.9575195,54.4228516,18.8447266,54.6972656,18.425293z M70.4746094,18.4931641
			c1.6689453,0.8544922,1.6289063,1.1186523,2.6152344,2.7592773l-0.5664063-4.2192383L58.46875,17.0039063l-0.8359375,4.2485352
			C58.2695313,20.1757813,58.5566406,19.3007813,60.25,18.46875c0.6933594-0.3481445,1.90625-0.5205078,3.6230469-0.5205078
			v9.1123047c0,1.9316406-0.1787109,3.0742188-0.5341797,3.4667969c-0.9628906,1.09375-1.140625,1.2158203-2.3544922,1.4667969
			h10.0117188c-1.4267578-0.4345703-2.6933594-0.390625-3.6542969-1.484375
			c-0.3603516-0.3984375-0.5136719-1.5371094-0.5136719-3.4492188v-9.1123047
			C68.5527344,17.9648438,69.7587891,18.1376953,70.4746094,18.4931641z M41,17
			c0.9570313,0.2895508,3.2304688,0.5761719,3.1894531,2.1723633c0,0.7709961-0.4970703,2.3447266-1.4794922,4.7558594
			l-2.0751953,5.2124023l-2.9804688-7.6645508c-0.6054688-1.362793-0.8964844-2.2216797-0.8964844-2.6079102
			C36.8261719,17.4692383,37.4941406,17.5205078,39,17h-9c5.6533203,0.7211914,4.5839844,8.5869141,6.7451172,12.0410156
			c0.7119141,1.4287109,2.7236328,2.3945313,3.4238281,4.671875c1.8046875-4.5224609,3.7802734-9.6469727,5.6933594-14.019043
			C46.7490234,18.1079102,46.4501953,17.4331055,48,17H41z"/>
	</g>
</g>
</svg>
