<?xml version="1.0" encoding="utf-8"?>
<!-- Generator: Adobe Illustrator 16.0.0, SVG Export Plug-In . SVG Version: 6.00 Build 0)  -->
<!DOCTYPE svg PUBLIC "-//W3C//DTD SVG 1.1//EN" "http://www.w3.org/Graphics/SVG/1.1/DTD/svg11.dtd">
<svg version="1.1" id="Слой_1" xmlns="http://www.w3.org/2000/svg" xmlns:xlink="http://www.w3.org/1999/xlink" x="0px" y="0px"
	 width="35px" height="46px" viewBox="0 0 35 46" enable-background="new 0 0 35 46" xml:space="preserve">
<g>
	<g>
		<path fill="#FFFFFF" d="M33.1816406,9.4868164c-0.5458984-1.6962891-1.375-3.1391602-2.4863281-4.3291016
			C29.5849609,3.9677734,28.1855469,3.0615234,26.5,2.4370117c-1.6865234-0.6240234-3.6699219-0.9365234-5.9511719-0.9365234
			H1.015625L1,44.5h9L9.9921875,29.0566406h9.8261719c2.2216797,0,4.2109375-0.3398438,5.9648438-1.0234375
			c1.7548828-0.6816406,3.2412109-1.6328125,4.4589844-2.8515625c1.21875-1.21875,2.1494141-2.6713867,2.7929688-4.3583984
			S34,17.2885742,34,15.2792969C34,13.1142578,33.7265625,11.184082,33.1816406,9.4868164z M23.2832031,20.1357422
			c-1.1601563,0.9946289-2.7539063,1.4921875-4.78125,1.4921875H9.9921875V8.9023438h8.5097656
			c1.0136719,0,1.9248047,0.1220703,2.734375,0.3652344c0.8085938,0.2446289,1.4912109,0.6245117,2.046875,1.1411133
			s0.984375,1.175293,1.2861328,1.9746094c0.3027344,0.7998047,0.4541016,1.765625,0.4541016,2.8959961
			C25.0234375,17.5229492,24.4423828,19.1411133,23.2832031,20.1357422z M10,39.5h14v-6H10V39.5z"/>
	</g>
</g>
</svg>
