<?xml version="1.0" encoding="utf-8"?>
<!-- Generator: Adobe Illustrator 16.0.0, SVG Export Plug-In . SVG Version: 6.00 Build 0)  -->
<!DOCTYPE svg PUBLIC "-//W3C//DTD SVG 1.1//EN" "http://www.w3.org/Graphics/SVG/1.1/DTD/svg11.dtd">
<svg version="1.1" id="Слой_1" xmlns="http://www.w3.org/2000/svg" xmlns:xlink="http://www.w3.org/1999/xlink" x="0px" y="0px"
	 width="24px" height="29px" viewBox="0 0 24 29" enable-background="new 0 0 24 29" xml:space="preserve">
<path fill-rule="evenodd" clip-rule="evenodd" fill="#333945" d="M7,18h9v2H7V18z"/>
<path fill="#333945" d="M5,24h2v-9h8c0.96875,0,1.4326172-0.125,2.21875-0.390625s1.4609375-0.65625,2.0263672-1.1777344
	c0.5644531-0.519043,0.9980469-1.1523438,1.2998047-1.8979492c0.3027344-0.7451172,0.4541016-1.5888672,0.4541016-2.5307617
	c0-0.9414063-0.1513672-1.784668-0.4541016-2.5307617c-0.3017578-0.7451172-0.7353516-1.3779297-1.2998047-1.8974609
	c-0.5654297-0.5200195-1.2402344-0.9121094-2.0263672-1.1772461C16.4326172,3.1328125,15.5556641,3,14.5869141,3H5V24z M7,13V5h7
	c1.4316406,0,2.7246094,0.0600586,3.6113281,0.7661133c0.8876953,0.7060547,1.3310547,1.7856445,1.3310547,3.2368164
	c0,1.4521484-0.4433594,2.5307617-1.3310547,3.2368164C16.7246094,12.9467773,15.4316406,13,14,13H7z"/>
</svg>
