<?xml version="1.0" encoding="utf-8"?>
<!-- Generator: Adobe Illustrator 16.0.0, SVG Export Plug-In . SVG Version: 6.00 Build 0)  -->
<!DOCTYPE svg PUBLIC "-//W3C//DTD SVG 1.1//EN" "http://www.w3.org/Graphics/SVG/1.1/DTD/svg11.dtd">
<svg version="1.1" id="Слой_1" xmlns="http://www.w3.org/2000/svg" xmlns:xlink="http://www.w3.org/1999/xlink" x="0px" y="0px"
	 width="10px" height="11px" viewBox="0 0 10 11" enable-background="new 0 0 10 11" xml:space="preserve">
<path fill="#FFFFFF" d="M1,8h5v1H1V8z"/>
<path fill="#FFFFFF" d="M0,11h1V6h4c0.5166016,0,1.0292969,0,1.4472656-0.1416016
	c0.4208984-0.1425781,0.7792969-0.3486328,1.0800781-0.6279297c0.3027344-0.2763672,0.5332031-0.6152344,0.6953125-1.0126953
	c0.1601563-0.3955078,0.2421875-0.8466797,0.2421875-1.3486328c0-0.5009766-0.2109375-0.925293-0.3710938-1.3222656
	c-0.1621094-0.3974609-0.0722656-0.2851563-0.375-0.5625C7.4179688,0.7070313,6.9833984,0.2993164,6.5625,0.15625
	C6.5625,0.15625,5.5166016,0,5,0H0V11z M1,5V1h4c0.7636719,0,1.5273438,0.6235352,2,1
	c0.0517578,0.0415039,0.3671875,0.4604492,0.3671875,0.8691406c0,0.7753906-0.2363281,1.3486328-0.7099609,1.7265625
	C6.1845703,4.9716797,5.4960938,5,4.7324219,5H1z"/>
</svg>
