<?xml version="1.0" standalone="no"?>
<!DOCTYPE svg PUBLIC "-//W3C//DTD SVG 1.1//EN" "http://www.w3.org/Graphics/SVG/1.1/DTD/svg11.dtd" >
<svg xmlns="http://www.w3.org/2000/svg">
<metadata>Generated by IcoMoon</metadata>
<defs>
<font id="icomoon" horiz-adv-x="512">
<font-face units-per-em="512" ascent="480" descent="-32" />
<missing-glyph horiz-adv-x="512" />
<glyph unicode="&#x20;" d="" horiz-adv-x="256" />
<glyph unicode="&#xe600;" d="M0 480v-512h512v512h-512zM302.826 157.935l-15.739-15.739-87.37 87.364 87.37 87.364 15.739-15.739-71.63-71.625 71.63-71.625z" />
<glyph unicode="&#xe601;" d="M287.087 316.924l-87.364-87.364 87.364-87.364 15.739 15.739-71.625 71.625 71.625 71.625z" />
<glyph unicode="&#xe602;" d="M0 480v-512h512v512h-512zM222.608 123.826l-27.113 28.55 60.505 71.625-60.505 71.625 27.113 17.419 75.998-89.044-75.999-100.174z" />
<glyph unicode="&#xe603;" d="M211.244 136.637l87.363 87.363-87.363 87.363-15.75-15.738 71.635-71.625-71.635-71.625z" />
<glyph unicode="&#xe604;" d="M0 480v-512h512v512h-512zM275.779 255.088l-14.214 14.214v-117.649h-22.261v117.649l-14.214-14.214-15.738 15.738 41.083 41.072 41.082-41.072-15.738-15.738z" />
<glyph unicode="&#xe605;" d="M275.779 255.088l-25.344 25.333-25.344-25.333-15.738 15.739 41.083 41.071 41.083-41.072zM250.435 285.028v0l-11.131-11.12v-122.257h22.261v122.257z" />
<glyph unicode="&#xe606;" d="M275.779 266.217l-25.344 25.333-25.344-25.333-15.738 15.739 41.083 41.071 41.083-41.072zM250.435 296.159v0l-11.131-11.12v-122.256h22.261v122.257z" />
<glyph unicode="&#xe607;" d="M384-3.555h-256c-62.734 0-113.778 51.043-113.778 113.778v227.555c0 62.734 51.044 113.778 113.778 113.778h256c62.734 0 113.778-51.043 113.778-113.778v-115.243c5.846-11.478 19.314-25.159 61.582-25.159 6.898 0 14.464 0.37 22.471 1.095l16.1 1.465-0.611-16.171c-1.365-35.982-33.451-86.528-100.466-87.552-7.154-56.42-55.054-99.769-112.853-99.769zM128 423.111c-47.061 0-85.334-38.272-85.334-85.333v-227.556c0-47.062 38.272-85.334 85.334-85.334h256c47.062 0 85.334 38.272 85.334 85.334v15.488l15.431-0.64c48.37-4.067 72.349 22.315 80.611 43.947-50.404-1.394-81.138 13.284-94.848 44.658l-1.195 2.716v121.387c0 47.062-38.272 85.334-85.334 85.334h-256zM156.445 245.333c-15.702 0-28.445-12.729-28.445-28.444s12.729-28.445 28.445-28.445c15.715 0 28.445 12.729 28.445 28.445 0 15.702-12.729 28.445-28.445 28.445zM256 245.333c-15.702 0-28.445-12.729-28.445-28.444s12.729-28.445 28.445-28.445c15.716 0 28.445 12.729 28.445 28.445 0 15.702-12.729 28.445-28.445 28.445zM355.555 245.333c-15.716 0-28.445-12.729-28.445-28.444s12.743-28.445 28.445-28.445c15.702 0 28.445 12.729 28.445 28.445 0 15.702-12.743 28.445-28.445 28.445z" horiz-adv-x="626" />
<glyph unicode="&#xe608;" d="M163.84 239.36c-28.232 0-51.2 22.969-51.2 51.2s22.968 51.2 51.2 51.2 51.2-22.969 51.2-51.2-22.969-51.2-51.2-51.2zM163.84 321.28c-16.937 0-30.72-13.783-30.72-30.72s13.783-30.72 30.72-30.72 30.72 13.783 30.72 30.72-13.783 30.72-30.72 30.72zM163.84 8.99l-7.619 8.489c-6.38 7.106-156.221 175.104-156.221 262.841 0 90.338 73.502 163.84 163.84 163.84s163.84-73.502 163.84-163.84c0-87.737-149.842-255.734-156.221-262.841l-7.619-8.489zM163.84 423.68c-79.053 0-143.36-64.307-143.36-143.36 0-69.438 112.671-204.862 143.36-240.435 30.669 35.584 143.36 171.018 143.36 240.435 0 79.053-64.307 143.36-143.36 143.36z" horiz-adv-x="328" />
<glyph unicode="&#xe609;" d="M281.6 121.6h-153.6v153.6h51.2v-102.4h102.4zM409.6 224h-179.2v179.2h179.2v-179.2zM281.6 275.2h76.8v76.8h-76.8v-76.8z" />
<glyph unicode="&#xe60a;" d="M0 480v-512h512v512h-512zM303.174 218.783l-86.832-54.848c-4.418-2.793-10.343 0.217-10.343 5.261v109.695c0 5.043 5.924 8.043 10.343 5.25l86.832-54.848c3.945-2.5 3.945-8.011 0-10.511z" />
<glyph unicode="&#xe60b;" d="M216.343 163.935l86.831 54.848c3.945 2.5 3.945 8.011 0 10.511l-86.832 54.848c-4.418 2.793-10.343-0.207-10.343-5.25v-109.695c0-5.043 5.924-8.055 10.343-5.261z" />
<glyph unicode="&#xe60c;" d="M0 480v-512h512v512h-512zM319.533 187.358l-21.315-21.315-47.783 47.783-47.783-47.783-20.625 21.092 49.408 45.69-44.522 44.522 22.706 22.25 40.582-43.832 42.896 42.207 24.12-23.652-46.37-40.66 48.685-46.302z" />
<glyph unicode="&#xe60d;" d="M298.216 166.043l-111.302 111.302 15.74 15.74 111.302-111.302-15.74-15.74zM202.655 166.043l-15.74 15.74 111.302 111.302 15.74-15.74-111.302-111.302z" />
<glyph unicode="&#xe60e;" d="M323.2 352.358c-21.99 19.507-51.328 28.698-80.615 25.011-44.237-5.504-80.435-40.141-87.962-84.352-1.229-7.142-1.511-8.986-1.255-17.459h76.519c-0.358 3.43-2.816 1.817-2.279 4.889 1.971 11.623 12.314 21.453 24.038 22.912 11.469 1.203 18.918-3.712 22.502-6.887 6.17-5.478 9.575-13.082 9.575-21.376 0-11.673-6.938-22.041-17.69-26.445-28.928-11.725-61.235-38.375-61.235-68.839v-7.014h76.416c38.887 15.821 76.544 60.109 76.544 102.323 0 29.517-12.595 57.677-34.56 77.235zM242.841 147.2c-21.222 0-38.4-17.203-38.4-38.4s17.178-38.4 38.4-38.4c21.197 0 38.4 17.203 38.4 38.4s-17.203 38.4-38.4 38.4z" />
<glyph unicode="&#xe60f;" d="M336.358 108.672c-2.918 0-5.863 0.717-8.55 2.202l-59.546 32.563-59.546-32.563c-2.688-1.485-5.607-2.202-8.55-2.202-3.789 0-7.577 1.229-10.778 3.635-5.657 4.275-8.499 11.52-7.296 18.663l11.367 68.992-48.179 48.896c-4.992 5.069-6.809 12.672-4.633 19.584 2.15 6.912 7.885 11.955 14.822 13.005l66.585 10.061 29.773 62.771c3.097 6.528 9.472 10.65 16.461 10.65s13.363-4.122 16.461-10.65l29.773-62.771 66.586-10.061c6.912-1.050 12.672-6.067 14.822-13.005 2.151-6.912 0.358-14.515-4.634-19.584l-48.179-48.87 11.366-68.992c1.178-7.168-1.639-14.413-7.296-18.663-3.226-2.432-7.014-3.661-10.829-3.661z" />
<glyph unicode="&#xe610;" d="M960.77 161.327v19.635h-48.057l-9.79-47.296h4.199c2.871 1.363 5.528 2.339 7.942 2.933s4.85 0.892 7.313 0.892c2.29 0 4.621-0.2 6.995-0.637 2.38-0.429 4.49-1.149 6.358-2.159 1.861-1.024 3.376-2.421 4.573-4.214s1.792-4.041 1.792-6.76c0-5.348-1.612-9.327-4.836-11.921s-7.458-3.889-12.723-3.889c-1.778 0-3.508 0.139-5.21 0.38-1.695 0.256-3.404 0.768-5.148 1.543-1.744 0.754-3.543 1.854-5.404 3.245-1.868 1.404-3.812 3.217-5.853 5.431h-2.663l-1.903-21.434c4.068-2.539 8.323-4.497 12.772-5.853 4.456-1.363 9.389-2.055 14.813-2.055 5.085 0 9.963 0.74 14.626 2.228 4.656 1.488 8.752 3.688 12.26 6.579 3.521 2.878 6.317 6.448 8.393 10.703 2.076 4.241 3.12 9.091 3.12 14.543 0 3.985-0.636 7.659-1.903 11.029-1.28 3.349-3.12 6.255-5.535 8.731-2.414 2.456-5.383 4.365-8.898 5.743-3.514 1.349-7.52 2.041-12.011 2.041-1.944 0-3.757-0.097-5.404-0.256-1.646-0.173-3.245-0.429-4.767-0.768l2.041 11.61 32.919-0.027zM891.169 111.354h-26.201c5.002 5.189 9.244 9.686 12.716 13.512 3.473 3.812 6.296 7.341 8.462 10.517 2.159 3.19 3.716 6.227 4.649 9.132 0.927 2.878 1.39 5.985 1.39 9.298 0 3.743-0.636 7.389-1.903 10.973-1.28 3.57-3.245 6.732-5.915 9.486-2.663 2.767-6.033 5.002-10.108 6.704-4.068 1.688-8.89 2.539-14.487 2.539-6.787 0-12.343-1.163-16.66-3.514-4.331-2.339-7.756-5.216-10.295-8.662s-4.324-7.12-5.341-11.029c-1.010-3.916-1.563-7.472-1.639-10.717h22.244c0 0.851 0.090 2.124 0.256 3.826 0.159 1.702 0.636 3.39 1.39 5.106 0.761 1.702 1.889 3.162 3.376 4.394 1.481 1.231 3.494 1.854 6.033 1.854 1.792 0 3.314-0.339 4.635-1.024 1.314-0.678 2.436-1.543 3.37-2.622 0.934-1.038 1.626-2.283 2.11-3.688 0.457-1.39 0.706-2.823 0.706-4.269 0-1.273-0.173-2.526-0.512-3.771-0.339-1.231-0.913-2.512-1.716-3.889-0.809-1.349-1.868-2.906-3.183-4.635-1.314-1.757-2.989-3.771-5.023-6.054l-36.876-43.096h68.536v19.628zM791.278 91.719l20.334 29.702c3.397 4.919 5.874 9.7 7.444 14.336 1.557 4.635 2.352 9.755 2.352 15.38 0 4.919-0.809 9.389-2.408 13.38-1.619 3.999-3.93 7.389-6.933 10.205-3.016 2.795-6.614 4.961-10.807 6.497-4.186 1.543-8.835 2.297-13.92 2.297-5.77 0-10.8-0.878-15.069-2.622-4.283-1.729-7.887-4.096-10.807-7.078-2.927-2.975-5.099-6.406-6.552-10.322-1.439-3.902-2.159-8.026-2.159-12.35 0-4.255 0.636-8.192 1.903-11.796 1.273-3.618 3.072-6.718 5.404-9.313s5.12-4.608 8.393-6.054c3.259-1.446 6.884-2.173 10.876-2.173 1.598 0 2.982 0.111 4.13 0.325 1.141 0.2 2.221 0.485 3.238 0.824l-21.745-31.231h26.326zM796.806 160.947c2.165-2.539 3.245-5.728 3.245-9.555 0-3.66-1.072-6.781-3.245-9.375-2.159-2.594-5.231-3.889-9.208-3.889-2.041 0-3.847 0.366-5.41 1.093-1.563 0.719-2.878 1.688-3.937 2.933-1.058 1.231-1.861 2.636-2.414 4.2s-0.823 3.245-0.823 5.043c0 3.826 1.141 7.015 3.432 9.555 2.29 2.553 5.335 3.84 9.154 3.84 3.971-0.007 7.043-1.294 9.208-3.847zM715.090 91.719h23.011v89.243h-36.627v-20.527h13.616v-68.716zM369.967 380.005c0 6.732-2.401 11.063-6.725 11.063-11.056 0-27.391-35.091-36.524-75.482 30.276 19.711 43.248 44.702 43.248 64.419zM70.591 46.361c0-9.119 2.878-24.043 13.45-24.043 41.332 0 93.706 110.103 96.113 195.673-72.563-49.517-109.564-121.145-109.564-171.63zM446.854 417.988h43.248l-21.62-74.521 33.632 8.649 19.22 65.873h40.37l-32.683-112.013 53.813 71.629 12.011 40.391h38.447l-23.067-79.329c-0.962-2.885-5.756-19.711-1.917-19.711 4.338 0 14.412 18.272 25.952 38.945 12.502 22.596 23.551 46.625 28.36 60.096h39.401l-19.22-67.312 49.98 67.311h345.987l-834.706-356.732 16.335 56.255 655.451 268.264h-127.808l-12.509-41.83-40.841-12.973 16.349 54.803h-20.147l-56.74-73.552-35.562-12.024c1.917 17.795 4.802 35.575 9.133 52.886l-16.348-30.767c-12.972-24.035-24.021-43.262-43.726-43.262-14.418 0-21.15 13.463-21.15 31.244 0 6.255 0.976 12.973 2.408 19.711l-53.329-71.158-44.217-14.425 22.098 77.399-33.632-8.649-23.060-80.775-48.057-15.857 21.62 74.513-48.534-62.018c-20.666-26.443-41.81-40.861-58.635-40.861-32.676 0-37.001 53.841-34.116 75.483-17.781-8.178-24.036-11.063-29.798-14.425 7.686-115.389-109.556-274.517-184.049-274.517-23.067 0-40.84 17.794-40.84 58.172 0 59.618 44.694 146.626 164.829 214.9-3.369 23.558-11.534 43.262-25.959 55.771v2.407c40.84 31.252 71.608 66.343 71.608 98.079 0 14.418-11.056 20.189-23.066 20.189-22.59 0-52.374-27.882-68.723-51.44h-8.371l13.187 45.192c30.754 40.861 79.772 55.287 106.686 55.287 27.391 0 50.457-10.578 50.457-43.269 0-38.938-33.639-79.322-83.618-109.605 11.534-12.986 19.227-27.889 23.544-44.238 12.011 6.247 24.506 12.495 37.956 18.75 14.418 70.674 64.876 124.999 109.57 124.999 22.582 0 32.676-13.464 32.676-31.729 0-42.3-38.918-74.991-93.706-103.849-1.515-9.838-1.439-15.38-1.439-21.157 0-19.234 4.324-28.359 11.526-28.359 4.801 0 10.565 4.331 17.303 12.018l74.002 87.507 24.036 83.639z" horiz-adv-x="1093" />
<glyph unicode="&#xe611;" d="M290.134 360.534c0 0-68.267 0-89.344 0.034-40.055 0.069-77.739-29.798-77.739-62.191 0-33.093 27.306-60.723 68.045-60.723 2.833 0 5.581-0.41 8.278-0.239-2.629-4.677-4.523-10.155-4.523-15.599 0-9.199 5.359-16.776 12.151-22.853-5.12 0-10.087-0.205-15.48-0.205-49.613 0.017-89.122-29.115-89.122-59.324 0-29.73 43.178-51.968 92.791-51.968 56.559 0 87.126 33.195 87.126 62.925 0 23.842-6.981 38.11-30.584 53.487-8.072 5.257-23.518 18.074-23.518 25.6 0 8.823 2.731 13.175 17.152 23.535 14.762 10.649 26.231 24.354 26.231 41.745 0 20.702-11.008 36.54-29.781 46.302h28.313l20.002 19.473zM258.918 155.529c0.7-2.765 1.092-5.598 1.092-8.499 0-24.030-16.81-40.363-65.007-40.363-34.287 0-59.050 17.562-59.050 41.591 0 23.535 30.72 43.144 65.007 42.803 8.005-0.103 15.463-1.263 22.221-3.294 18.619-11.93 31.966-18.654 35.738-32.239zM204.015 245.112c-23.023 0.631-44.886 23.739-48.862 51.593-3.976 27.835 11.452 49.135 34.458 48.503 23.023-0.614 45.875-22.971 49.869-50.808 3.976-27.853-12.458-49.92-35.465-49.288zM375.466 309.333v51.2h-17.067v-51.2h-51.2v-17.066h51.2v-51.166h17.067v51.166h51.2v17.066h-51.2z" />
<glyph unicode="&#xe612;" d="M328.772 200.397c-8.397 8.363-21.777 15.479-28.723 16.538 34.134 14.951 47.667 92.399-61.115 92.399h-85.334l0.119-204.8h95.71c15.889 0 29.065 1.28 39.424 3.874 10.36 2.56 19.865 6.895 28.502 12.919 7.441 5.154 13.329 11.623 17.596 19.456 4.267 7.8 6.383 16.64 6.383 26.555 0 13.704-4.182 24.712-12.561 33.058zM204.817 273.528h30.379c10.615 0 19.337-1.093 26.181-3.26 7.936-3.123 11.913-9.541 11.913-19.269 0-8.79-3.003-14.899-8.994-18.346-6.007-3.447-13.824-5.154-23.433-5.154h-36.028v46.029zM274.329 142.387c-5.888-2.27-24.866-3.721-35.397-3.721h-34.133l-0.051 51.541h45.756c10.445-0.086 18.534-1.178 24.303-3.26 10.325-3.738 15.497-10.615 15.497-20.582 0-11.827-5.325-19.832-15.974-23.978z" />
<glyph unicode="&#xe613;" d="M320.239 182.971c-15.36-9.472-36.421-13.056-50.176-14.421l54.084-51.951c6.469-6.195 6.469-16.281 0-22.494l-1.945-1.877c-6.469-6.229-16.964-6.229-23.433 0-10.82 10.394-26.419 25.378-42.582 40.892l-42.582-40.892c-6.469-6.229-16.964-6.229-23.433 0l-1.963 1.877c-6.469 6.212-6.469 16.281 0 22.494 10.821 10.394 26.419 25.361 42.582 40.892l11.469 11.025c-13.738 1.349-35.021 4.915-50.518 14.455-18.142 11.161-26.18 17.8-19.064 31.522 4.079 7.868 15.377 14.422 30.395 3.038 20.292-15.343 52.906-15.343 52.906-15.343s32.615 0 52.906 15.343c15.019 11.383 26.317 4.83 30.396-3.038 7.134-13.721-0.904-20.361-19.046-31.522zM256 223.795c-37.939 0-68.694 30.618-68.694 68.403 0 37.769 30.754 68.403 68.694 68.403s68.693-30.618 68.693-68.403c0-37.786-30.754-68.403-68.694-68.403zM256 326.4c-18.961 0-34.338-15.309-34.338-34.202s15.377-34.202 34.338-34.202c18.978 0 34.355 15.326 34.355 34.202 0 18.893-15.377 34.202-34.355 34.202z" />
<glyph unicode="&#xe614;" d="M324.267 241.066h-68.267v51.2c0 9.438 7.646 17.066 17.067 17.066h51.2v51.2h-51.2c-37.701 0-68.267-30.567-68.267-68.267v-51.2h-34.133v-51.2h34.133v-102.4h51.2v102.4h34.134l34.134 51.2z" />
<glyph unicode="&#xe615;" d="M384.017 308.634v0 0zM299.998 334.882c-30.942 0-56.030-25.054-56.030-55.995 0-4.403 0.495-8.67 1.451-12.766-46.558 2.321-87.842 24.627-115.473 58.522-4.83-8.278-7.578-17.903-7.578-28.16 0-19.439 9.882-36.574 24.918-46.626-9.182 0.307-17.817 2.816-25.378 6.998 0-0.222 0-0.461 0-0.7 0-27.119 19.319-49.766 44.937-54.903-4.694-1.28-9.66-1.979-14.762-1.979-3.618 0-7.117 0.341-10.547 1.007 7.134-22.255 27.819-38.434 52.344-38.878-19.183-15.036-43.333-23.978-69.581-23.978-4.522 0-8.994 0.256-13.363 0.768 24.798-15.872 54.238-25.156 85.879-25.156 103.049 0 159.403 85.351 159.403 159.351 0 2.423-0.051 4.847-0.171 7.253 10.957 7.902 20.446 17.767 27.955 28.997-10.053-4.454-20.856-7.458-32.188-8.824 11.571 6.929 20.446 17.92 24.644 30.993-10.837-6.417-22.818-11.077-35.584-13.602-10.206 10.906-24.764 17.681-40.875 17.681z" />
</font>
</defs>
</svg>
