<?xml version="1.0" encoding="utf-8"?>
<!-- Generator: Adobe Illustrator 19.1.0, SVG Export Plug-In . SVG Version: 6.00 Build 0)  -->
<svg version="1.1" xmlns="http://www.w3.org/2000/svg" xmlns:xlink="http://www.w3.org/1999/xlink" x="0px" y="0px"
	 viewBox="0 0 444 207" enable-background="new 0 0 444 207" xml:space="preserve">
<g id="Layer_1">
	<g>
		<path d="M74.3,111.3H58.7V63.6h23c13.7,0,20.3,6.3,20.3,16.1c0,10.3-6.1,16.8-19.8,16.8h-7.9V111.3z M74.3,85.4h6.5
			c3.6,0,6.3-1.5,6.3-5.6c0-4.4-5-5-8.3-5h-4.4V85.4z"/>
		<path d="M118.8,76.6l6.1,21.4l6-21.4h13.2L133,109c-3.6,10.7-5.1,14.1-17.4,14.1c-1.4,0-4.6-0.1-6.1-0.3v-9.5
			c5.9,0,7.4-0.3,7.4-2.4c0-0.7-0.2-1.5-12-34.2H118.8z"/>
		<path d="M172.2,89.9c0-2.7-2-5-5-5c-5.2,0-6,5.4-6,9.5c0,5.2,2,8.7,6,8.7c3.6,0,5-2.5,5.4-5.2h13.9c-1.2,10.5-9.7,14.4-19.3,14.4
			c-11.2,0-19.8-6.3-19.8-18c0-11.9,8.3-18.7,19.8-18.7c9.3,0,18,4,19,14.2H172.2z"/>
		<path d="M226.2,63.6v18.1c1.6-3.8,5.3-6.2,9.6-6.2c9.3,0,13.2,8.5,13.2,18.1c0,13.6-6.9,18.6-13.8,18.6c-3.2,0-7-2.2-9-5.1v15.9
			h-12.6v-15.9c-2,2.9-5.8,5.1-9,5.1c-7,0-13.8-5-13.8-18.6c0-9.5,4-18.1,13.2-18.1c4.3,0,8,2.3,9.6,6.2V63.6H226.2z M213.6,93.6
			c0-4.6-1.9-7.9-4.6-7.9c-3,0-5,2.7-5,8.2c0,4.8,1.9,7.9,5,7.9C212,101.8,213.6,98.5,213.6,93.6z M235.8,93.9c0-5.5-2-8.2-5-8.2
			c-2.8,0-4.6,3.3-4.6,7.9c0,4.8,1.7,8.1,4.6,8.1C233.9,101.8,235.8,98.7,235.8,93.9z"/>
		<path d="M273.4,75.6c12.2,0,19.8,7.2,19.8,18c0,12.7-8.6,18.7-19.7,18.7c-11.1,0-19.7-6.1-19.7-17.9
			C253.7,82.3,261.7,75.6,273.4,75.6z M267.5,93.6c0,6.6,2.5,9.4,6,9.4c3.7,0,6-2.8,6-9.4c0-5.1-2.3-8.7-5.8-8.7
			C268.9,84.9,267.5,89.7,267.5,93.6z"/>
		<path d="M312.9,88.2h10.2V76.6h13.8v34.7h-13.8v-13h-10.2v13h-13.8V76.6h13.8V88.2z"/>
		<path d="M382.2,76.6v26.8h3.8v16.2h-12.6v-8.3h-18.9v8.3H342v-16.2h3.2c2.7-4.4,3.6-9.6,3.6-16.7V76.6H382.2z M361.4,84.6v3.2
			c0,5.6-0.7,11.9-3.2,15.6h10.3V84.6H361.4z"/>
	</g>
	<g>
		<path fill="#D20A11" d="M68.5,131.6v7c0.7-1.2,2-2.2,3.7-2.2c3.2,0,4.7,3,4.7,6.4c0,3.5-1.4,6.4-4.7,6.4c-1.6,0-2.9-0.6-3.7-2.1
			v6.6h-1.4v-6.6c-0.8,1.5-2.1,2.1-3.7,2.1c-3.3,0-4.7-3-4.7-6.5c0-3.4,1.5-6.4,4.7-6.4c1.7,0,3,1,3.7,2.1v-7H68.5z M67.1,142.9
			c0-2.7-1.2-5.1-3.5-5.1c-2.4,0-3.4,2.7-3.4,5.1c0,2.7,1,5.2,3.4,5.2C66,148.1,67.1,145.5,67.1,142.9z M75.4,142.9
			c0-2.5-1.1-5.1-3.4-5.1c-2.2,0-3.5,2.4-3.5,5.1c0,2.6,1,5.2,3.5,5.2C74.4,148.1,75.4,145.6,75.4,142.9z"/>
		<path fill="#D20A11" d="M90.5,142.9c0,3.9-2.2,6.4-5.7,6.4c-3.1,0-5.7-2.2-5.7-6.4c0-3.6,1.9-6.4,5.7-6.4
			C88.6,136.5,90.5,139.4,90.5,142.9z M80.7,142.9c0,3,1.4,5.2,4.1,5.2c3,0,4.1-2.5,4.1-5.2c0-2.9-1.2-5.2-4.1-5.2
			C81.8,137.8,80.7,140.3,80.7,142.9z"/>
		<path fill="#D20A11" d="M94.8,141.9h6.8v-5.1h1.4V149h-1.4v-5.9h-6.8v5.9h-1.4v-12.2h1.4V141.9z"/>
		<path fill="#D20A11" d="M115.8,136.8v11h1.2v4.4h-1.4V149h-9v3.2h-1.4v-4.4h1.1c1.3-2.4,1.5-5,1.5-7.3v-3.7H115.8z M109.1,138v2.7
			c0,2.6-0.1,4.7-1.3,7.2h6.6V138H109.1z"/>
		<path fill="#D20A11" d="M135.7,136.8V149h-1.4v-11h-6.8v11H126v-12.2H135.7z"/>
		<path fill="#D20A11" d="M149.8,142.9c0,3.9-2.2,6.4-5.7,6.4c-3.1,0-5.7-2.2-5.7-6.4c0-3.6,1.9-6.4,5.7-6.4
			C148,136.5,149.8,139.4,149.8,142.9z M140,142.9c0,3,1.4,5.2,4.1,5.2c3,0,4.1-2.5,4.1-5.2c0-2.9-1.2-5.2-4.1-5.2
			C141.2,137.8,140,140.3,140,142.9z"/>
		<path fill="#D20A11" d="M154.5,136.8l4.1,10.6l4.1-10.6h1.8V149h-1.4v-10l-3.9,10h-1.3l-3.9-10v10h-1.4v-12.2H154.5z"/>
		<path fill="#D20A11" d="M178.7,142.9c0,3.9-2.2,6.4-5.7,6.4c-3.1,0-5.7-2.2-5.7-6.4c0-3.6,1.9-6.4,5.7-6.4
			C176.8,136.5,178.7,139.4,178.7,142.9z M168.9,142.9c0,3,1.4,5.2,4.1,5.2c3,0,4.1-2.5,4.1-5.2c0-2.9-1.2-5.2-4.1-5.2
			C170,137.8,168.9,140.3,168.9,142.9z"/>
		<path fill="#D20A11" d="M182.9,147.9h6.2v-11h1.4v11h6.2v-11h1.4v11h1.2v4.4h-1.4V149h-16.4v-12.2h1.4V147.9z"/>
		<path fill="#D20A11" d="M203.1,147.2l7-10.3h1.6V149h-1.4v-10.3l-7,10.3h-1.6v-12.2h1.4V147.2z"/>
		<path fill="#D20A11" d="M226.9,136.5c3.7,0,5.6,2.9,5.6,6.4c0,3.9-2.2,6.4-5.7,6.4c-3.8,0-5.7-2.9-5.7-7c0-4.1,0.6-8.4,4.9-9.2
			c2.8-0.5,3.8-0.8,3.8-1.5h1.5c0,1.6-2,2.2-4.7,2.7c-2.3,0.4-3.5,1.6-4.1,4.5C223.5,137.4,224.8,136.5,226.9,136.5z M231,142.9
			c0-2.9-1.2-5.2-4.1-5.2c-3,0-4.1,2.4-4.1,5c0,2.8,1.4,5.3,4.1,5.3C229.8,148.1,231,145.6,231,142.9z"/>
		<path fill="#D20A11" d="M246.1,142.9c0,3.9-2.2,6.4-5.7,6.4c-3.1,0-5.7-2.2-5.7-6.4c0-3.6,1.9-6.4,5.7-6.4
			C244.2,136.5,246.1,139.4,246.1,142.9z M236.2,142.9c0,3,1.4,5.2,4.1,5.2c3,0,4.1-2.5,4.1-5.2c0-2.9-1.2-5.2-4.1-5.2
			C237.4,137.8,236.2,140.3,236.2,142.9z"/>
		<path fill="#D20A11" d="M258.3,136.8V149h-1.4v-11h-5.6v2.3c0,1.7-0.1,4-0.2,5.2c-0.3,2.4-1.1,3.6-2.6,3.6c-0.3,0-0.7,0-1-0.2
			v-1.2c0.3,0.1,0.7,0.1,0.8,0.1c0.4,0,0.7-0.3,1-0.8c0.4-0.8,0.6-3,0.6-10.3H258.3z"/>
		<path fill="#D20A11" d="M263.3,141.9h3.6c2.6,0,4.2,1.5,4.2,3.6c0,3.3-3.1,3.5-4.1,3.5h-5.2v-12.2h1.4V141.9z M263.3,147.9h3.2
			c2.1,0,3.1-0.9,3.1-2.3c0-1.5-1.2-2.4-2.8-2.4h-3.5V147.9z"/>
		<path fill="#D20A11" d="M275.5,141.9h6.8v-5.1h1.4V149h-1.4v-5.9h-6.8v5.9h-1.4v-12.2h1.4V141.9z"/>
		<path fill="#D20A11" d="M288.6,141.9h3.6c2.6,0,4.2,1.5,4.2,3.6c0,3.3-3.1,3.5-4.1,3.5h-5.2v-12.2h1.4V141.9z M288.6,147.9h3.2
			c2.1,0,3.1-0.9,3.1-2.3c0-1.5-1.2-2.4-2.8-2.4h-3.5V147.9z M300.3,149h-1.4v-12.2h1.4V149z"/>
		<path fill="#D20A11" d="M305.5,136.8l4.1,10.6l4.1-10.6h1.8V149h-1.4v-10l-3.9,10H309l-3.9-10v10h-1.4v-12.2H305.5z"/>
		<path fill="#D20A11" d="M334.9,136.8v11h1.2v4.4h-1.4V149h-9v3.2h-1.4v-4.4h1.1c1.3-2.4,1.5-5,1.5-7.3v-3.7H334.9z M328.2,138v2.7
			c0,2.6-0.1,4.7-1.3,7.2h6.6V138H328.2z"/>
		<path fill="#D20A11" d="M339.5,143.3c0,2.6,1.4,4.8,4.1,4.8c1.8,0,3.3-1,3.7-2.8h1.6c-0.7,2.3-2.2,4.1-5.3,4.1
			c-3.9,0-5.6-2.8-5.6-6.4c0-3.6,2.1-6.5,5.6-6.5c3.3,0,5.4,2.4,5.4,6.8H339.5z M347.5,142.1c0-2.4-1.3-4.3-3.9-4.3
			c-2.5,0-3.8,2-4.1,4.3H347.5z"/>
		<path fill="#D20A11" d="M360,136.8v1.2h-4.1v11h-1.4v-11h-4.1v-1.2H360z"/>
		<path fill="#D20A11" d="M366,143.8L363,149h-1.6l3.1-5.3c-2-0.5-3-1.7-3-3.4c0-3.3,3.1-3.5,4.1-3.5h5.2V149h-1.4v-5.2H366z
			 M369.3,138h-3.2c-2.1,0-3.1,0.9-3.1,2.3c0,1.5,1.2,2.3,2.8,2.3h3.5V138z"/>
		<path fill="#D20A11" d="M376,136.8l4.1,10.6l4.1-10.6h1.8V149h-1.4v-10l-3.9,10h-1.3l-3.9-10v10h-1.4v-12.2H376z"/>
	</g>
</g>
<g id="Layer_2">
</g>
<g id="Layer_3">
</g>
</svg>
