<?xml version="1.0" encoding="utf-8"?>
<!-- Generator: Adobe Illustrator 17.0.1, SVG Export Plug-In . SVG Version: 6.00 Build 0)  -->
<!DOCTYPE svg PUBLIC "-//W3C//DTD SVG 1.1//EN" "http://www.w3.org/Graphics/SVG/1.1/DTD/svg11.dtd">
<svg version="1.1" id="Слой_1" xmlns="http://www.w3.org/2000/svg" xmlns:xlink="http://www.w3.org/1999/xlink" x="0px" y="0px"
	 width="44px" height="36px" viewBox="0 0 44 36" enable-background="new 0 0 44 36" xml:space="preserve">
<g>
	<g>
		<path d="M27,34H9c-4.411,0-8-3.589-8-8V10c0-4.411,3.589-8,8-8h18c4.411,0,8,3.589,8,8v8.103c0.411,0.807,1.358,1.769,4.33,1.769
			c0.485,0,1.017-0.026,1.58-0.077l1.132-0.103l-0.043,1.137c-0.096,2.53-2.352,6.084-7.064,6.156C34.432,30.952,31.064,34,27,34z
			 M9,4c-3.309,0-6,2.691-6,6v16c0,3.309,2.691,6,6,6h18c3.309,0,6-2.691,6-6v-1.089l1.085,0.045
			c3.401,0.286,5.087-1.569,5.668-3.09c-3.544,0.098-5.705-0.934-6.669-3.14L33,18.535V10c0-3.309-2.691-6-6-6H9z"/>
	</g>
</g>
<g>
	<g>
		<path fill-rule="evenodd" clip-rule="evenodd" d="M11,16.5c-1.104,0-2,0.895-2,2c0,1.105,0.895,2,2,2c1.105,0,2-0.895,2-2
			C13,17.396,12.105,16.5,11,16.5z M18,16.5c-1.104,0-2,0.895-2,2c0,1.105,0.895,2,2,2c1.105,0,2-0.895,2-2
			C20,17.396,19.105,16.5,18,16.5z M25,16.5c-1.105,0-2,0.895-2,2c0,1.105,0.896,2,2,2c1.104,0,2-0.895,2-2
			C27,17.396,26.104,16.5,25,16.5z"/>
	</g>
</g>
</svg>
