<?xml version="1.0" encoding="utf-8"?>
<!-- Generator: Adobe Illustrator 17.0.1, SVG Export Plug-In . SVG Version: 6.00 Build 0)  -->
<!DOCTYPE svg PUBLIC "-//W3C//DTD SVG 1.1//EN" "http://www.w3.org/Graphics/SVG/1.1/DTD/svg11.dtd">
<svg version="1.1" id="Слой_1" xmlns="http://www.w3.org/2000/svg" xmlns:xlink="http://www.w3.org/1999/xlink" x="0px" y="0px"
	 width="32px" height="50px" viewBox="0 0 32 50" enable-background="new 0 0 32 50" xml:space="preserve">
<g>
	<path fill="#0C0E0F" d="M16,23.5c-2.757,0-5-2.243-5-5s2.243-5,5-5s5,2.243,5,5S18.757,23.5,16,23.5z M16,15.5
		c-1.654,0-3,1.346-3,3s1.346,3,3,3s3-1.346,3-3S17.654,15.5,16,15.5z"/>
</g>
<g>
	<path fill="#0C0E0F" d="M16,45.997l-0.744-0.829C14.633,44.474,0,28.068,0,19.5c0-8.822,7.178-16,16-16s16,7.178,16,16
		c0,8.568-14.633,24.974-15.256,25.668L16,45.997z M16,5.5c-7.72,0-14,6.28-14,14c0,6.781,11.003,20.006,14,23.48
		c2.995-3.475,14-16.701,14-23.48C30,11.78,23.72,5.5,16,5.5z"/>
</g>
</svg>
