<?xml version="1.0" encoding="utf-8"?>
<!-- Generator: Adobe Illustrator 17.0.1, SVG Export Plug-In . SVG Version: 6.00 Build 0)  -->
<!DOCTYPE svg PUBLIC "-//W3C//DTD SVG 1.1//EN" "http://www.w3.org/Graphics/SVG/1.1/DTD/svg11.dtd">
<svg version="1.1" id="Слой_1" xmlns="http://www.w3.org/2000/svg" xmlns:xlink="http://www.w3.org/1999/xlink" x="0px" y="0px"
	 width="30px" height="30px" viewBox="0 0 30 30" enable-background="new 0 0 30 30" xml:space="preserve">
<path fill-rule="evenodd" clip-rule="evenodd" d="M18.764,17.404c-0.9,0.555-2.134,0.765-2.94,0.845l0.674,0.648l2.495,2.396
	c0.379,0.363,0.379,0.954,0,1.318l-0.114,0.11c-0.379,0.365-0.994,0.365-1.373,0c-0.634-0.609-1.548-1.487-2.495-2.396l-2.495,2.396
	c-0.379,0.365-0.994,0.365-1.373,0l-0.115-0.11c-0.379-0.364-0.379-0.954,0-1.318c0.634-0.609,1.548-1.486,2.495-2.396l0.672-0.646
	c-0.805-0.079-2.052-0.288-2.96-0.847c-1.063-0.654-1.534-1.043-1.117-1.847c0.239-0.461,0.901-0.845,1.781-0.178
	c1.189,0.899,3.1,0.899,3.1,0.899s1.911,0,3.1-0.899c0.88-0.667,1.542-0.283,1.781,0.178C20.298,16.361,19.827,16.75,18.764,17.404z
	 M15,15.012c-2.223,0-4.025-1.794-4.025-4.008c0-2.213,1.802-4.008,4.025-4.008c2.223,0,4.025,1.794,4.025,4.008
	C19.025,13.218,17.223,15.012,15,15.012z M15,9c-1.111,0-2.012,0.897-2.012,2.004c0,1.107,0.901,2.004,2.012,2.004
	c1.112,0,2.013-0.898,2.013-2.004C17.013,9.897,16.112,9,15,9z"/>
</svg>
