<?xml version="1.0" encoding="utf-8"?>
<!-- Generator: Adobe Illustrator 17.0.1, SVG Export Plug-In . SVG Version: 6.00 Build 0)  -->
<!DOCTYPE svg PUBLIC "-//W3C//DTD SVG 1.1//EN" "http://www.w3.org/Graphics/SVG/1.1/DTD/svg11.dtd">
<svg version="1.1" id="Слой_1" xmlns="http://www.w3.org/2000/svg" xmlns:xlink="http://www.w3.org/1999/xlink" x="0px" y="0px"
	 width="20px" height="20px" viewBox="0 0 20 20" enable-background="new 0 0 20 20" xml:space="preserve">
<g>
	<g>
		<path fill-rule="evenodd" clip-rule="evenodd" fill="#33365B" d="M12.625,4.986c-0.859-0.762-2.005-1.121-3.149-0.977
			C7.748,4.224,6.334,5.577,6.04,7.304C5.992,7.583,5.981,7.655,5.991,7.986H8.98C8.966,7.852,8.87,7.915,8.891,7.795
			C8.968,7.341,9.372,6.957,9.83,6.9c0.448-0.047,0.739,0.145,0.879,0.269c0.241,0.214,0.374,0.511,0.374,0.835
			c0,0.456-0.271,0.861-0.691,1.033C9.262,9.495,8,10.536,8,11.726V12l2.985,0c1.519-0.618,2.99-2.348,2.99-3.997
			C13.975,6.85,13.483,5.75,12.625,4.986z M9.486,13c-0.829,0-1.5,0.672-1.5,1.5c0,0.828,0.671,1.5,1.5,1.5
			c0.828,0,1.5-0.672,1.5-1.5C10.986,13.672,10.314,13,9.486,13z"/>
	</g>
</g>
</svg>
