<?xml version="1.0" encoding="utf-8"?>
<!-- Generator: Adobe Illustrator 17.0.1, SVG Export Plug-In . SVG Version: 6.00 Build 0)  -->
<!DOCTYPE svg PUBLIC "-//W3C//DTD SVG 1.1//EN" "http://www.w3.org/Graphics/SVG/1.1/DTD/svg11.dtd">
<svg version="1.1" id="Слой_1" xmlns="http://www.w3.org/2000/svg" xmlns:xlink="http://www.w3.org/1999/xlink" x="0px" y="0px"
	 width="20px" height="20px" viewBox="0 0 20 20" enable-background="new 0 0 20 20" xml:space="preserve">
<path fill="#272A41" d="M13.139,14.505c-0.114,0-0.229-0.028-0.334-0.086l-2.326-1.272l-2.326,1.272
	c-0.105,0.058-0.219,0.086-0.334,0.086c-0.148,0-0.296-0.048-0.421-0.142c-0.221-0.167-0.332-0.45-0.285-0.729l0.444-2.695
	L5.675,9.029C5.48,8.831,5.409,8.534,5.494,8.264c0.084-0.27,0.308-0.467,0.579-0.508l2.601-0.393l1.163-2.452
	c0.121-0.255,0.37-0.416,0.643-0.416c0.273,0,0.522,0.161,0.643,0.416l1.163,2.452l2.601,0.393c0.27,0.041,0.495,0.237,0.579,0.508
	c0.084,0.27,0.014,0.567-0.181,0.765l-1.882,1.909l0.444,2.695c0.046,0.28-0.064,0.563-0.285,0.729
	C13.436,14.457,13.288,14.505,13.139,14.505z"/>
</svg>
