<?xml version="1.0" encoding="utf-8"?>
<!-- Generator: Adobe Illustrator 17.0.1, SVG Export Plug-In . SVG Version: 6.00 Build 0)  -->
<!DOCTYPE svg PUBLIC "-//W3C//DTD SVG 1.1//EN" "http://www.w3.org/Graphics/SVG/1.1/DTD/svg11.dtd">
<svg version="1.1" id="Слой_1" xmlns="http://www.w3.org/2000/svg" xmlns:xlink="http://www.w3.org/1999/xlink" x="0px" y="0px"
	 width="30px" height="30px" viewBox="0 0 30 30" enable-background="new 0 0 30 30" xml:space="preserve">
<path d="M22.501,10.041L22.501,10.041L22.501,10.041 M17.578,8.503c-1.813,0-3.283,1.468-3.283,3.281
	c0,0.258,0.029,0.508,0.085,0.748c-2.728-0.136-5.147-1.443-6.766-3.429c-0.283,0.485-0.444,1.049-0.444,1.65
	c0,1.139,0.579,2.143,1.46,2.732c-0.538-0.018-1.044-0.165-1.487-0.41c0,0.013,0,0.027,0,0.041c0,1.589,1.132,2.916,2.633,3.217
	c-0.275,0.075-0.566,0.116-0.865,0.116c-0.212,0-0.417-0.02-0.618-0.059c0.418,1.304,1.63,2.252,3.067,2.278
	c-1.124,0.881-2.539,1.405-4.077,1.405c-0.265,0-0.527-0.015-0.783-0.045c1.453,0.93,3.178,1.474,5.032,1.474
	c6.038,0,9.34-5.001,9.34-9.337c0-0.142-0.003-0.284-0.01-0.425c0.642-0.463,1.198-1.041,1.638-1.699
	c-0.589,0.261-1.222,0.437-1.886,0.517c0.678-0.406,1.198-1.05,1.444-1.816c-0.635,0.376-1.337,0.649-2.085,0.797
	C19.375,8.9,18.522,8.503,17.578,8.503"/>
</svg>
