<?xml version="1.0" encoding="utf-8"?>
<!-- Generator: Adobe Illustrator 17.0.1, SVG Export Plug-In . SVG Version: 6.00 Build 0)  -->
<!DOCTYPE svg PUBLIC "-//W3C//DTD SVG 1.1//EN" "http://www.w3.org/Graphics/SVG/1.1/DTD/svg11.dtd">
<svg version="1.1" id="Слой_1" xmlns="http://www.w3.org/2000/svg" xmlns:xlink="http://www.w3.org/1999/xlink" x="0px" y="0px"
	 width="30px" height="30px" viewBox="0 0 30 30" enable-background="new 0 0 30 30" xml:space="preserve">
<g>
	<g>
		<path fill-rule="evenodd" clip-rule="evenodd" d="M19.264,16.383c-0.492-0.49-1.276-0.907-1.683-0.969
			C19.581,14.538,20.374,10,14,10H9l0.007,12h5.608c0.931,0,1.703-0.075,2.31-0.227c0.607-0.15,1.164-0.404,1.67-0.757
			c0.436-0.302,0.781-0.681,1.031-1.14C19.876,19.419,20,18.901,20,18.32C20,17.517,19.755,16.872,19.264,16.383z M12.001,12.098
			h1.78c0.622,0,1.133,0.064,1.534,0.191c0.465,0.183,0.698,0.559,0.698,1.129c0,0.515-0.176,0.873-0.527,1.075
			c-0.352,0.202-0.81,0.302-1.373,0.302h-2.111V12.098z M16.074,19.782C15.729,19.915,14.617,20,14,20h-2l-0.003-3.02h2.681
			c0.612,0.005,1.086,0.069,1.424,0.191c0.605,0.219,0.908,0.622,0.908,1.206C17.01,19.07,16.698,19.539,16.074,19.782z"/>
	</g>
</g>
</svg>
