<?xml version="1.0" encoding="utf-8"?>
<!-- Generator: Adobe Illustrator 16.0.0, SVG Export Plug-In . SVG Version: 6.00 Build 0)  -->
<!DOCTYPE svg PUBLIC "-//W3C//DTD SVG 1.1//EN" "http://www.w3.org/Graphics/SVG/1.1/DTD/svg11.dtd">
<svg version="1.1"
	 id="Слой_1" xmlns:boxy="http://www.boxy-svg.com/boxyNS" xmlns:xml="http://www.w3.org/XML/1998/namespace" boxy:scrollY="-7" boxy:scrollX="-2" boxy:zoom="786"
	 xmlns="http://www.w3.org/2000/svg" xmlns:xlink="http://www.w3.org/1999/xlink" x="0px" y="0px" width="157.998px"
	 height="74.003px" viewBox="0 0 157.998 74.003" enable-background="new 0 0 157.998 74.003" xml:space="preserve">
<g>
	<path fill="#009EE1" d="M138.867,46.06v-2.838h-6.946l-1.415,6.836h0.607c0.415-0.197,0.799-0.338,1.148-0.424
		s0.701-0.129,1.057-0.129c0.331,0,0.668,0.029,1.011,0.092c0.344,0.062,0.649,0.166,0.919,0.312
		c0.269,0.148,0.488,0.35,0.661,0.609s0.259,0.584,0.259,0.977c0,0.773-0.233,1.348-0.699,1.723s-1.078,0.562-1.839,0.562
		c-0.257,0-0.507-0.02-0.753-0.055c-0.245-0.037-0.492-0.111-0.744-0.223c-0.252-0.109-0.512-0.268-0.781-0.469
		c-0.27-0.203-0.551-0.465-0.846-0.785h-0.385l-0.275,3.098c0.588,0.367,1.203,0.65,1.846,0.846
		c0.644,0.197,1.357,0.297,2.141,0.297c0.735,0,1.44-0.107,2.114-0.322c0.673-0.215,1.265-0.533,1.772-0.951
		c0.509-0.416,0.913-0.932,1.213-1.547c0.3-0.613,0.451-1.314,0.451-2.102c0-0.576-0.092-1.107-0.275-1.594
		c-0.185-0.484-0.451-0.904-0.8-1.262c-0.349-0.355-0.778-0.631-1.286-0.83c-0.508-0.195-1.087-0.295-1.736-0.295
		c-0.281,0-0.543,0.014-0.781,0.037c-0.238,0.025-0.469,0.062-0.689,0.111l0.295-1.678h4.758V46.06z M128.807,53.283h-3.787
		c0.723-0.75,1.336-1.4,1.838-1.953c0.502-0.551,0.91-1.061,1.223-1.52c0.312-0.461,0.537-0.9,0.672-1.32
		c0.134-0.416,0.201-0.865,0.201-1.344c0-0.541-0.092-1.068-0.275-1.586c-0.185-0.516-0.469-0.973-0.855-1.371
		c-0.385-0.4-0.872-0.723-1.461-0.969c-0.588-0.244-1.285-0.367-2.094-0.367c-0.981,0-1.784,0.168-2.408,0.508
		c-0.626,0.338-1.121,0.754-1.488,1.252s-0.625,1.029-0.772,1.594c-0.146,0.566-0.226,1.08-0.237,1.549h3.215
		c0-0.123,0.013-0.307,0.037-0.553c0.023-0.246,0.092-0.49,0.201-0.738c0.11-0.246,0.273-0.457,0.488-0.635
		c0.214-0.178,0.505-0.268,0.872-0.268c0.259,0,0.479,0.049,0.67,0.148c0.19,0.098,0.352,0.223,0.487,0.379
		c0.135,0.15,0.235,0.33,0.305,0.533c0.066,0.201,0.102,0.408,0.102,0.617c0,0.184-0.025,0.365-0.074,0.545
		c-0.049,0.178-0.132,0.363-0.248,0.562c-0.117,0.195-0.27,0.42-0.46,0.67c-0.19,0.254-0.432,0.545-0.726,0.875l-5.33,6.229h9.906
		V53.283z M114.369,56.121l2.939-4.293c0.491-0.711,0.849-1.402,1.076-2.072c0.225-0.67,0.34-1.41,0.34-2.223
		c0-0.711-0.117-1.357-0.348-1.934c-0.234-0.578-0.568-1.068-1.002-1.475c-0.436-0.404-0.956-0.717-1.562-0.939
		c-0.605-0.223-1.277-0.332-2.012-0.332c-0.834,0-1.561,0.127-2.178,0.379c-0.619,0.25-1.14,0.592-1.562,1.023
		c-0.423,0.43-0.737,0.926-0.947,1.492c-0.208,0.564-0.312,1.16-0.312,1.785c0,0.615,0.092,1.184,0.275,1.705
		c0.184,0.523,0.444,0.971,0.781,1.346s0.74,0.666,1.213,0.875c0.471,0.209,0.995,0.314,1.572,0.314
		c0.231,0,0.431-0.016,0.597-0.047c0.165-0.029,0.321-0.07,0.468-0.119l-3.143,4.514H114.369z M115.168,46.115
		c0.313,0.367,0.469,0.828,0.469,1.381c0,0.529-0.155,0.98-0.469,1.355c-0.312,0.375-0.756,0.562-1.331,0.562
		c-0.295,0-0.556-0.053-0.782-0.158c-0.226-0.104-0.416-0.244-0.569-0.424c-0.153-0.178-0.269-0.381-0.349-0.607
		s-0.119-0.469-0.119-0.729c0-0.553,0.165-1.014,0.496-1.381c0.331-0.369,0.771-0.555,1.323-0.555
		C114.411,45.56,114.855,45.746,115.168,46.115 M103.357,56.121h3.326V43.222h-5.294v2.967h1.968V56.121z"/>
	<path fill="#009EE1" d="M53.474,14.453c0-0.973-0.347-1.599-0.972-1.599c-1.598,0-3.959,5.072-5.279,10.91
		C51.599,20.915,53.474,17.303,53.474,14.453 M10.203,62.677c0,1.318,0.416,3.475,1.944,3.475c5.974,0,13.544-15.914,13.892-28.282
		C15.551,45.027,10.203,55.38,10.203,62.677 M64.587,8.963h6.251l-3.125,10.771l4.861-1.25l2.778-9.521h5.835l-4.724,16.19
		l7.778-10.353l1.736-5.838h5.557l-3.334,11.466c-0.139,0.417-0.832,2.849-0.277,2.849c0.627,0,2.083-2.641,3.751-5.629
		c1.807-3.266,3.404-6.739,4.099-8.686h5.695l-2.778,9.729l7.224-9.729h50.008L35.276,60.523l2.361-8.131l94.737-38.774h-18.473
		l-1.808,6.046l-5.903,1.875l2.363-7.921h-2.912L97.44,24.249l-5.14,1.738c0.277-2.572,0.694-5.142,1.32-7.644l-2.363,4.447
		c-1.875,3.474-3.472,6.253-6.32,6.253c-2.084,0-3.057-1.946-3.057-4.516c0-0.904,0.141-1.875,0.348-2.849L74.52,31.963
		l-6.391,2.085l3.194-11.187l-4.861,1.25l-3.333,11.675l-6.946,2.292l3.125-10.77l-7.015,8.964
		c-2.987,3.822-6.043,5.906-8.475,5.906c-4.723,0-5.348-7.782-4.931-10.91c-2.57,1.182-3.474,1.599-4.307,2.085
		c1.111,16.678-15.835,39.678-26.602,39.678c-3.334,0-5.903-2.572-5.903-8.408c0-8.617,6.46-21.193,23.824-31.061
		c-0.487-3.405-1.667-6.253-3.752-8.061v-0.348c5.903-4.517,10.35-9.589,10.35-14.176c0-2.084-1.598-2.918-3.334-2.918
		c-3.265,0-7.57,4.03-9.933,7.435H18.02l1.906-6.532c4.445-5.906,11.53-7.991,15.42-7.991c3.959,0,7.293,1.529,7.293,6.254
		c0,5.628-4.862,11.465-12.086,15.842c1.667,1.877,2.779,4.031,3.403,6.394c1.736-0.903,3.542-1.806,5.486-2.71
		c2.084-10.215,9.377-18.067,15.837-18.067c3.264,0,4.723,1.946,4.723,4.586c0,6.114-5.625,10.839-13.544,15.01
		c-0.219,1.422-0.208,2.223-0.208,3.058c0,2.78,0.625,4.099,1.666,4.099c0.694,0,1.527-0.626,2.501-1.737l10.696-12.648
		L64.587,8.963z"/>
</g>
</svg>
